<svg viewBox="0 0 127.00001 144" xmlns="http://www.w3.org/2000/svg"><g transform="matrix(.99083878 0 0 .97959271 .017679 1.238465)"><path d="m66 0v144l61-35v-74z" fill="#eb743b" transform="matrix(.98480464 0 0 1 1.929811 0)"/><path d="m61 60-1-1v-5l1-1v-12h-1v-21l1-1v-19l-61 35v74l61 35z" fill="#ba478f" transform="matrix(.98480464 0 0 1 1.929811 0)"/><path d="m62.002894 53-26.589726 16v-12l26.589726-16v-23l-32.045543 19.86h-.05909a2.7279089 2.77 0 0 0 -.256049.2l-.206809.17a2.8559335 2.9 0 0 0 -.187113.22c-.05909.07-.128024.14-.177264.22a2.4817077 2.52 0 0 0 -.147721.25 2.757453 2.8 0 0 0 -.128025.25c0 .09-.06894.18-.09848.28a2.7180608 2.76 0 0 0 -.07878.27 2.5210999 2.56 0 0 0 0 .27 2.9544139 3 0 0 0 0 .32v.08 50.61a10.832851 11 0 0 0 -7.878437 2c-4.766454 3.22-6.381534 9.28-3.939218 13 2.442315 3.72 8.06555 3.9 12.80246.68 2.718061-1.84 5.298249-4.07 5.908828-6.68a10.448777 10.61 0 0 0 0-2c0-.14 0-.28 0-.42v-21.58l26.589721-16z" fill="#fffedb" stroke-width=".992373"/><g stroke-width=".992373"><path d="m99.602735 106.11a6.0270044 6.12 0 0 0 -10.557106 4.74 19.55822 19.86 0 0 1 -5.249009 1.33 3.9392186 4 0 0 1 -2.186266-1 10.547258 10.71 0 0 0 -4.086939-1.85 37.068047 37.64 0 0 0 8.459472-12.81 6.0270044 6.12 0 1 0 -5.39673-9.24 6.0270044 6.12 0 0 0 1.595384 8.06c-3.988459 9.22-9.079899 13.08-12.378995 14.68a1.9696093 2 0 0 0 -.354529.17 11.0889 11.26 0 0 1 -2.5211.81v4a12.39869 12.59 0 0 0 4.18542-1.19c5.268704-1.36 6.736063-.35 8.282207.71a7.7602606 7.88 0 0 0 4.195267 1.66h.30529a23.251238 23.61 0 0 0 6.893632-1.72 6.0368524 6.13 0 0 0 4.244508 1.72 6.0270044 6.12 0 0 0 4.569494-10.1zm-15.62885-16.78a2.0779378 2.11 0 1 1 -.226505 1.6 2.0680897 2.1 0 0 1 .226505-1.6zm12.408539 22.36a2.0483937 2.08 0 0 1 -1.349183.51 2.0779378 2.11 0 0 1 -1.35903-3.72 2.0483937 2.08 0 0 1 1.349182-.51 2.0877858 2.12 0 0 1 2.077938 2.28 2.0582417 2.09 0 0 1 -.718907 1.44z" fill="#fffedb"/><path d="m97.406621 30.18a6.0270044 6.12 0 1 0 -10.832851 4.82 13.147142 13.35 0 0 1 -9.788959 4.29 28.707055 29.15 0 0 0 -9.848046-2.32v4a24.423155 24.8 0 0 1 8.607193 2.21 21.261932 21.59 0 0 1 8.479167 7 6.2239653 6.32 0 0 0 -.374225.54 6.0270044 6.12 0 1 0 8.321599-1.91 6.1254849 6.22 0 0 0 -4.599038-.75 25.604921 26 0 0 0 -5.258857-5.57 16.101556 16.35 0 0 0 7.661781-5.1 6.0565485 6.15 0 0 0 1.743104.27 6.0368524 6.13 0 0 0 5.908828-7.45zm-10.409385 22.67a2.0385456 2.07 0 0 1 .659819-.66 2.0779378 2.11 0 1 1 1.093133 3.91 2.0680897 2.1 0 0 1 -1.102981-.33 2.0976339 2.13 0 0 1 -.649971-2.92zm6.283053-20.19a2.1074819 2.14 0 0 1 -2.865781.65l-.09848-.06a2.0779378 2.11 0 1 1 3.240007-2.17 2.0483937 2.08 0 0 1 -.275745 1.59z" fill="#fffedb"/><path d="m105.97442 71.18a5.9088278 6 0 0 0 2.07794 2.65l.27574.19a6.0270044 6.12 0 1 0 3.22032-11.29h-.36438a25.339023 25.73 0 0 1 0-11.26h.33483a6.0270044 6.12 0 1 0 -4.08694-1.63l.0689.06a28.214653 28.65 0 0 0 0 14.42c-.13787.13-.2856.25-.42347.4a6.145181 6.24 0 0 0 -.62042.82 6.0663966 6.16 0 0 0 -.69922 1.58 14.969031 15.2 0 0 0 -6.676972 2.78c-1.969609 1.32-3.939218 2.57-9.493516 2.67a32.144023 32.64 0 0 0 -5.278553-.12c-1.408271.05-2.865782.11-4.776303 0-1.30979-.07-2.068089-.88-3.407424-2.42-1.772648-2.05-4.155875-4.65-9.227619-5v4c3.240007.3 4.727062 1.89 6.263357 3.67 1.536296 1.78 3.121831 3.62 6.164877 3.78 2.087786.11 3.702866.05 5.130833 0a23.851968 24.22 0 0 1 7.730716.7c2.57034.64 11.916134 9.67 14.545564 14.32-.10833.14-.21666.28-.30529.43a6.0073083 6.1 0 0 0 1.59538 8.25l.27575.19a6.0270044 6.12 0 1 0 3.22031-11.29 6.0860927 6.18 0 0 0 -1.5166.2c-2.5211-4.19-8.51856-10.46-12.989571-13.79a17.903748 18.18 0 0 0 4.146031-2.19 11.13814 11.31 0 0 1 4.81569-2.12zm3.82104-26.92a2.0805122 2.1126141 0 1 1 3.51576 2.26 2.1074819 2.14 0 0 1 -2.86579.65l-.0886-.06a2.0680897 2.1 0 0 1 -.56134-2.84zm0 23.46a2.0805122 2.1126141 0 1 1 3.51576 2.26 2.1074819 2.14 0 0 1 -2.86579.65l-.0886-.06a2.0680897 2.1 0 0 1 -.56134-2.84zm0 26.3a2.0805122 2.1126141 0 1 1 3.51576 2.26 2.1074819 2.14 0 0 1 -2.86579.65l-.0886-.06a2.0779378 2.11 0 0 1 -.56134-2.84z" fill="#fffedb"/></g></g></svg>